# Blender 3.4.1
# www.blender.org
o Forêt_Texture2
v -0.411175 -0.117301 3.366180
v 0.374854 -0.117301 3.366180
v -0.411175 0.668729 3.366180
v 0.374854 0.668729 3.366180
v 1.160883 -0.117301 3.366180
v 0.374854 -0.117301 3.366180
v 1.160883 0.668729 3.366180
v 0.374854 0.668729 3.366180
v -0.411175 -0.117301 3.366180
v -1.197204 -0.117301 3.366180
v -0.411175 0.668729 3.366180
v -1.197204 0.668729 3.366180
v -0.411175 1.454758 3.366180
v 0.374854 1.454758 3.366180
v -0.411175 0.668729 3.366180
v 0.374854 0.668729 3.366180
v 1.160883 1.454758 3.366180
v 0.374854 1.454758 3.366180
v 1.160883 0.668729 3.366180
v 0.374854 0.668729 3.366180
v -0.411175 1.454758 3.366180
v -1.197204 1.454758 3.366180
v -0.411175 0.668729 3.366180
v -1.197204 0.668729 3.366180
v -0.411175 -0.117301 3.366180
v 0.374854 -0.117301 3.366180
v -0.411175 -0.903330 3.366180
v 0.374854 -0.903330 3.366180
v 1.160883 -0.117301 3.366180
v 0.374854 -0.117301 3.366180
v 1.160883 -0.903330 3.366180
v 0.374854 -0.903330 3.366180
v -0.411175 -0.117301 3.366180
v -1.197204 -0.117301 3.366180
v -0.411175 -0.903330 3.366180
v -1.197204 -0.903330 3.366180
v 1.160883 -0.117301 2.109009
v 1.160883 0.668729 2.109009
v -1.197204 -0.117301 2.109009
v -1.197204 0.668729 2.109009
v -0.411175 1.454758 2.109009
v 0.374854 1.454758 2.109009
v 1.160883 1.454758 2.109009
v 0.374854 1.454758 2.109009
v 1.160883 0.668729 2.109009
v -0.411175 1.454758 2.109009
v -1.197204 1.454758 2.109009
v -1.197204 0.668729 2.109009
v -0.411175 -0.903330 2.109009
v 0.374854 -0.903330 2.109009
v 1.160883 -0.117301 2.109009
v 1.160883 -0.903330 2.109009
v 0.374854 -0.903330 2.109009
v -1.197204 -0.117301 2.109009
v -0.411175 -0.903330 2.109009
v -1.197204 -0.903330 2.109009
vn -0.0000 -0.0000 -1.0000
vn -0.0000 -1.0000 -0.0000
vn 1.0000 -0.0000 -0.0000
vn -0.0000 1.0000 -0.0000
vn -1.0000 -0.0000 -0.0000
vt 0.169181 0.169181
vt 0.830819 0.169181
vt 0.169181 0.830819
vt 0.830819 0.830819
vt 0.169181 0.169181
vt 0.830819 0.169181
vt 0.169181 0.830819
vt 0.830819 0.830819
vt 0.169181 0.169181
vt 0.830819 0.169181
vt 0.169181 0.830819
vt 0.830819 0.830819
vt 0.169181 0.169181
vt 0.830819 0.169181
vt 0.169181 0.830819
vt 0.830819 0.830819
vt 0.169181 0.169181
vt 0.830819 0.169181
vt 0.169181 0.830819
vt 0.830819 0.830819
vt 0.169181 0.169181
vt 0.830819 0.169181
vt 0.169181 0.830819
vt 0.830819 0.830819
vt 0.169181 0.169181
vt 0.830819 0.169181
vt 0.169181 0.830819
vt 0.830819 0.830819
vt 0.169181 0.169181
vt 0.830819 0.169181
vt 0.169181 0.830819
vt 0.830819 0.830819
vt 0.169181 0.169181
vt 0.830819 0.169181
vt 0.169181 0.830819
vt 0.830819 0.830819
vt 0.169181 0.169181
vt 0.169181 0.830819
vt 0.830819 0.169181
vt 0.830819 0.830819
vt 0.169181 0.169181
vt 0.830819 0.169181
vt 0.169181 0.169181
vt 0.830819 0.169181
vt 0.169181 0.830819
vt 0.169181 0.169181
vt 0.830819 0.169181
vt 0.830819 0.830819
vt 0.169181 0.830819
vt 0.830819 0.830819
vt 0.169181 0.169181
vt 0.169181 0.830819
vt 0.830819 0.830819
vt 0.830819 0.169181
vt 0.169181 0.830819
vt 0.830819 0.830819
s 0
f 3/3/1 2/2/1 1/1/1
f 6/6/1 7/7/1 5/5/1
f 10/10/1 11/11/1 9/9/1
f 14/14/1 15/15/1 13/13/1
f 19/19/1 18/18/1 17/17/1
f 23/23/1 22/22/1 21/21/1
f 26/26/1 27/27/1 25/25/1
f 31/31/1 30/30/1 29/29/1
f 35/35/1 34/34/1 33/33/1
f 13/13/2 42/42/2 14/14/2
f 10/10/3 40/40/3 12/12/3
f 28/28/4 49/49/4 27/27/4
f 36/36/3 54/54/3 34/34/3
f 18/18/2 43/43/2 17/17/2
f 31/31/4 53/53/4 32/32/4
f 22/22/2 46/46/2 21/21/2
f 7/7/5 37/37/5 5/5/5
f 31/31/5 51/51/5 52/52/5
f 35/35/4 56/56/4 36/36/4
f 24/24/3 47/47/3 22/22/3
f 17/17/5 45/45/5 19/19/5
f 3/3/1 4/4/1 2/2/1
f 6/6/1 8/8/1 7/7/1
f 10/10/1 12/12/1 11/11/1
f 14/14/1 16/16/1 15/15/1
f 19/19/1 20/20/1 18/18/1
f 23/23/1 24/24/1 22/22/1
f 26/26/1 28/28/1 27/27/1
f 31/31/1 32/32/1 30/30/1
f 35/35/1 36/36/1 34/34/1
f 13/13/2 41/41/2 42/42/2
f 10/10/3 39/39/3 40/40/3
f 28/28/4 50/50/4 49/49/4
f 36/36/3 56/56/3 54/54/3
f 18/18/2 44/44/2 43/43/2
f 31/31/4 52/52/4 53/53/4
f 22/22/2 47/47/2 46/46/2
f 7/7/5 38/38/5 37/37/5
f 31/31/5 29/29/5 51/51/5
f 35/35/4 55/55/4 56/56/4
f 24/24/3 48/48/3 47/47/3
f 17/17/5 43/43/5 45/45/5
