# Blender 3.4.1
# www.blender.org
o Cube.022
v 0.498133 -0.024312 0.945450
v 0.498133 -0.024312 0.733584
v 0.693261 -0.024312 0.733584
v 0.693261 -0.024312 0.945450
v 0.514207 -0.024312 0.932405
v 0.514207 -0.024312 0.746629
v 0.677187 -0.024312 0.746629
v 0.677187 -0.024312 0.932405
v 0.514207 -0.029111 0.932405
v 0.514207 -0.029111 0.746629
v 0.677187 -0.029111 0.746629
v 0.677187 -0.029111 0.932405
v 0.526872 -0.029111 0.920840
v 0.526872 -0.029111 0.758193
v 0.664522 -0.029111 0.758193
v 0.664522 -0.029111 0.920840
v 0.533664 -0.030676 0.914638
v 0.533664 -0.030676 0.764396
v 0.657730 -0.030676 0.764396
v 0.657730 -0.030676 0.914638
v 0.537373 -0.034836 0.911251
v 0.537373 -0.034836 0.767782
v 0.654021 -0.034836 0.767782
v 0.654021 -0.034836 0.911251
v 0.537373 -0.076398 0.911251
v 0.537373 -0.076398 0.767782
v 0.654021 -0.076398 0.767782
v 0.654021 -0.076398 0.911251
v -0.463538 -0.259301 -0.750924
v -0.463538 -0.098325 -0.750924
v -0.090268 -0.259301 -0.750924
v -0.090268 -0.098325 -0.750924
v 0.661680 -0.036104 0.900375
v 0.661680 -0.014381 0.900375
v 0.661680 -0.036104 0.783006
v 0.661680 -0.014381 0.783006
v 0.709750 -0.014381 0.900375
v 0.709750 -0.014381 0.783006
v 0.679536 -0.019764 0.833796
v 0.679536 0.014904 0.833796
v 0.689134 -0.019764 0.839338
v 0.689134 0.014904 0.839338
v 0.689134 -0.019764 0.850420
v 0.689134 0.014904 0.850420
v 0.679536 -0.019764 0.855962
v 0.679536 0.014904 0.855962
v 0.669938 -0.019764 0.850420
v 0.669938 0.014904 0.850420
v 0.669938 -0.019764 0.839338
v 0.669938 0.014904 0.839338
v 0.669129 0.042204 0.839338
v 0.665181 0.033455 0.833796
v 0.669129 0.042204 0.850420
v 0.665181 0.033455 0.855962
v 0.661232 0.024707 0.850420
v 0.661232 0.024707 0.839338
v 0.639262 0.044610 0.839337
v 0.638737 0.035027 0.833796
v 0.639262 0.044610 0.850420
v 0.638737 0.035027 0.855962
v 0.638213 0.025443 0.850420
v 0.638213 0.025443 0.839337
v 0.619784 0.033957 0.839337
v 0.628273 0.029478 0.833796
v 0.619784 0.033957 0.850420
v 0.628273 0.029478 0.855962
v 0.636761 0.024999 0.850420
v 0.636761 0.024999 0.839337
v 0.617464 0.023154 0.839337
v 0.627062 0.023148 0.833796
v 0.617464 0.023154 0.850420
v 0.627062 0.023148 0.855962
v 0.636660 0.023142 0.850420
v 0.636660 0.023142 0.839337
v 0.682404 -0.018433 0.870716
v 0.682404 0.001211 0.868568
v 0.691171 -0.018433 0.875778
v 0.693032 0.001211 0.874704
v 0.691171 -0.018433 0.885902
v 0.693032 0.001211 0.886976
v 0.682404 -0.018433 0.890964
v 0.682404 0.001211 0.893112
v 0.673636 -0.018433 0.885902
v 0.671776 0.001211 0.886976
v 0.673636 -0.018433 0.875778
v 0.671776 0.001211 0.874704
v 0.682404 -0.018433 0.799675
v 0.682404 0.001211 0.797527
v 0.691171 -0.018433 0.804737
v 0.693032 0.001211 0.803663
v 0.691171 -0.018433 0.814861
v 0.693032 0.001211 0.815935
v 0.682404 -0.018433 0.819923
v 0.682404 0.001211 0.822071
v 0.673636 -0.018433 0.814861
v 0.671776 0.001211 0.815935
v 0.673636 -0.018433 0.804737
v 0.671776 0.001211 0.803663
vn -0.0000 1.0000 -0.0000
vn -0.0000 -0.0000 -1.0000
vn -0.0000 -0.0000 1.0000
vn -1.0000 -0.0000 -0.0000
vn 1.0000 -0.0000 -0.0000
vn -0.2245 0.9745 -0.0000
vn -0.0000 0.6313 -0.7755
vn 0.2245 0.9745 -0.0000
vn -0.0000 0.9696 -0.2447
vn -0.0000 0.9696 0.2447
vn -0.0000 0.6313 0.7755
vn -0.7465 0.6654 -0.0000
vn 0.7465 0.6654 -0.0000
vn 0.5000 -0.0000 -0.8660
vn 0.5000 -0.0000 0.8660
vn -0.5000 -0.0000 0.8660
vn -0.3997 -0.3549 0.8451
vn -0.5000 -0.0000 -0.8660
vn -0.7477 -0.6640 -0.0000
vn 0.4695 0.3440 -0.8132
vn 0.4328 0.3349 0.8370
vn -0.4663 -0.3608 -0.8077
vn 0.2682 -0.5059 -0.8198
vn 0.0297 0.4991 0.8660
vn 0.0420 0.5210 -0.8525
vn -0.0312 -0.5248 -0.8507
vn -0.0160 -0.4998 0.8660
vn 0.1533 -0.5009 0.8518
vn -0.4799 0.8773 -0.0000
vn -0.2618 0.4938 0.8292
vn -0.2732 0.4994 -0.8222
vn -0.4977 0.0952 0.8621
vn -0.5028 0.1080 -0.8576
vn 0.5076 -0.0971 -0.8561
vn 0.4998 -0.0275 0.8657
vn -0.9777 0.2100 -0.0000
vn 0.0803 0.9968 -0.0000
vn 0.4978 -0.0943 -0.8622
vn 0.4978 -0.0943 0.8622
vn -0.4978 -0.0943 0.8622
vn -0.9955 -0.0943 -0.0000
vn -0.4978 -0.0943 -0.8622
vn -0.4663 -0.3608 0.8077
vn 0.4328 0.3349 -0.8370
vn 0.4695 0.3440 0.8132
vn -0.3997 -0.3549 -0.8451
vn 0.1533 -0.5009 -0.8518
vn 0.0420 0.5210 0.8525
vn 0.0297 0.4991 -0.8660
vn -0.0160 -0.4998 -0.8660
vn -0.0312 -0.5248 0.8507
vn 0.2682 -0.5059 0.8198
vn -0.2732 0.4994 0.8222
vn -0.2618 0.4938 -0.8292
vn -0.5028 0.1080 0.8576
vn -0.4977 0.0952 -0.8621
vn 0.4998 -0.0275 -0.8657
vn 0.5076 -0.0971 0.8561
vt 0.724063 0.427696
vt 0.724063 0.003934
vt 0.333777 0.003934
vt 0.333777 0.427696
vt 0.989362 0.435564
vt 0.691912 0.401604
vt 0.913922 0.003934
vt 0.913922 0.375512
vt 0.691912 0.030026
vt 0.977469 0.329917
vt 0.977469 0.003934
vt 0.365928 0.030026
vt 0.940987 0.375512
vt 0.940987 0.003934
vt 0.989362 0.761547
vt 0.365928 0.401604
vt 0.979763 0.435564
vt 0.923521 0.003934
vt 0.333777 0.435737
vt 0.967870 0.329917
vt 0.923521 0.375512
vt 0.333777 0.807911
vt 0.660384 0.807738
vt 0.967870 0.003934
vt 0.931388 0.375512
vt 0.979763 0.761547
vt 0.931388 0.003934
vt 0.660384 0.435564
vt 0.359084 0.458870
vt 0.359119 0.784788
vt 0.635077 0.784605
vt 0.635042 0.458687
vt 0.996066 0.003934
vt 0.373060 0.471635
vt 0.960003 0.304439
vt 0.960003 0.003934
vt 0.373033 0.771954
vt 0.961166 0.743936
vt 0.961166 0.992085
vt 0.621101 0.771840
vt 0.971896 0.736069
vt 0.996066 0.252083
vt 0.621128 0.471521
vt 0.971896 0.435564
vt 0.855394 0.730389
vt 0.985336 0.011352
vt 0.948855 0.297665
vt 0.906054 0.290891
vt 0.906054 0.003934
vt 0.971896 0.751355
vt 0.948855 0.010707
vt 0.946389 0.963702
vt 0.946389 0.730389
vt 0.731930 0.003934
vt 0.971896 0.984667
vt 0.960748 0.729295
vt 0.731930 0.290892
vt 0.960748 0.442337
vt 0.985336 0.244665
vt 0.855394 0.963702
vt 0.668251 0.435564
vt 0.822926 0.290891
vt 0.772265 0.730389
vt 0.668251 0.722522
vt 0.822926 0.003934
vt 0.863261 0.963702
vt 0.815059 0.003934
vt 0.901564 0.722522
vt 0.863261 0.730389
vt 0.901564 0.435564
vt 0.815059 0.290892
vt 0.772265 0.963702
vt 0.325910 0.003934
vt 0.003934 0.003934
vt 0.325910 0.750528
vt 0.003934 0.750528
vt 0.952880 0.670320
vt 0.783247 0.394906
vt 0.826696 0.394906
vt 0.909431 0.670320
vt 0.764398 0.965145
vt 0.775379 0.394906
vt 0.952880 0.435564
vt 0.731930 0.394906
vt 0.909431 0.435564
vt 0.764398 0.730389
vt 0.826696 0.298759
vt 0.668251 0.965145
vt 0.731930 0.298759
vt 0.668251 0.730389
vt 0.088419 0.774569
vt 0.308354 0.758395
vt 0.265895 0.813217
vt 0.037826 0.821988
vt 0.073259 0.758395
vt 0.022667 0.805814
vt 0.165611 0.950453
vt 0.115019 0.903034
vt 0.235799 0.913484
vt 0.180771 0.934279
vt 0.193341 0.858663
vt 0.130178 0.886860
vt 0.834563 0.368100
vt 0.253325 0.899911
vt 0.210866 0.845089
vt 0.834563 0.298759
vt 0.886765 0.393427
vt 0.325879 0.771969
vt 0.856730 0.368100
vt 0.864597 0.393427
vt 0.856730 0.298759
vt 0.283421 0.826790
vt 0.003934 0.870865
vt 0.434541 0.875711
vt 0.261192 0.859898
vt 0.025819 0.867343
vt 0.096286 0.837983
vt 0.456709 0.875711
vt 0.118171 0.841505
vt 0.188638 0.811982
vt 0.886765 0.419651
vt 0.209700 0.818892
vt 0.864597 0.419651
vt 0.282255 0.852988
vt 0.834563 0.420372
vt 0.030303 0.924685
vt 0.434541 0.815778
vt 0.292448 0.902681
vt 0.049988 0.914493
vt 0.856730 0.420372
vt 0.456709 0.815779
vt 0.122655 0.784163
vt 0.142340 0.794354
vt 0.219894 0.769199
vt 0.237742 0.782345
vt 0.310297 0.889535
vt 0.066467 0.950453
vt 0.834563 0.375967
vt 0.754030 0.424940
vt 0.313533 0.913484
vt 0.069135 0.928446
vt 0.754030 0.402773
vt 0.856730 0.375967
vt 0.158819 0.758395
vt 0.161487 0.780401
vt 0.240979 0.758395
vt 0.240190 0.780549
vt 0.312745 0.891331
vt 0.088419 0.947898
vt 0.731930 0.424940
vt 0.081907 0.926709
vt 0.325879 0.909782
vt 0.180771 0.760949
vt 0.731930 0.402773
vt 0.174259 0.782139
vt 0.253325 0.762098
vt 0.243605 0.782021
vt 0.316160 0.889859
vt 0.886995 0.346093
vt 0.551800 0.855245
vt 0.889143 0.385560
vt 0.355035 0.864870
vt 0.553948 0.815778
vt 0.866745 0.346093
vt 0.864597 0.385560
vt 0.376292 0.852597
vt 0.628789 0.902580
vt 0.626642 0.863113
vt 0.376292 0.828051
vt 0.649039 0.902580
vt 0.466724 0.855246
vt 0.651187 0.863113
vt 0.464576 0.815778
vt 0.355035 0.815778
vt 0.596376 0.855245
vt 0.486974 0.855246
vt 0.489122 0.815779
vt 0.333777 0.828051
vt 0.594228 0.815778
vt 0.531550 0.855245
vt 0.616626 0.855245
vt 0.333777 0.852597
vt 0.618774 0.815778
vt 0.529402 0.815778
vt 0.628790 0.855246
vt 0.616626 0.902580
vt 0.626642 0.815778
vt 0.426674 0.852597
vt 0.618774 0.863113
vt 0.649039 0.855246
vt 0.651187 0.815778
vt 0.426674 0.828051
vt 0.866746 0.338226
vt 0.864597 0.298759
vt 0.405417 0.815778
vt 0.886995 0.338226
vt 0.499137 0.855246
vt 0.889143 0.298759
vt 0.496989 0.815778
vt 0.384159 0.828051
vt 0.563963 0.855245
vt 0.519387 0.855246
vt 0.521535 0.815779
vt 0.384160 0.852597
vt 0.561815 0.815778
vt 0.596376 0.902580
vt 0.584213 0.855245
vt 0.405417 0.864870
vt 0.586361 0.815778
vt 0.594228 0.863113
s 0
f 4/4/1 7/12/1 8/16/1
f 8/15/2 9/17/2 5/5/2
f 1/1/1 6/9/1 2/2/1
f 4/4/1 5/6/1 1/1/1
f 3/3/1 6/9/1 7/12/1
f 12/28/1 15/31/1 16/32/1
f 6/10/3 11/24/3 7/11/3
f 7/13/4 12/27/4 8/14/4
f 5/7/5 10/21/5 6/8/5
f 15/31/6 20/43/6 16/32/6
f 9/19/1 14/30/1 10/22/1
f 9/19/1 16/32/1 13/29/1
f 10/22/1 15/31/1 11/23/1
f 20/42/7 21/46/7 17/33/7
f 13/29/8 18/37/8 14/30/8
f 16/32/9 17/34/9 13/29/9
f 15/31/10 18/37/10 19/40/10
f 23/54/4 28/71/4 24/57/4
f 18/38/11 23/55/11 19/39/11
f 20/44/12 23/56/12 24/58/12
f 17/35/13 22/51/13 18/36/13
f 27/68/1 25/61/1 28/70/1
f 21/48/5 26/65/5 22/49/5
f 24/60/2 25/63/2 21/45/2
f 22/52/3 27/69/3 23/53/3
f 31/75/3 30/74/3 29/73/3
f 34/80/4 35/83/4 33/77/4
f 35/82/2 36/84/2 38/89/2
f 37/87/3 34/79/3 33/78/3
f 36/86/1 37/88/1 38/90/1
f 40/94/14 41/95/14 39/91/14
f 44/98/15 45/100/15 43/97/15
f 46/101/16 47/104/16 45/99/16
f 48/105/17 54/120/17 55/122/17
f 48/106/4 49/109/4 47/103/4
f 50/112/18 39/92/18 49/108/18
f 48/107/19 56/123/19 50/110/19
f 40/94/20 51/113/20 42/96/20
f 46/102/21 53/117/21 54/119/21
f 50/112/22 52/115/22 40/93/22
f 58/128/23 68/148/23 64/140/23
f 54/119/24 59/132/24 60/133/24
f 52/116/25 57/126/25 51/113/25
f 56/124/26 58/128/26 52/115/26
f 55/122/27 60/134/27 61/135/27
f 60/134/28 67/147/28 61/135/28
f 57/125/29 65/143/29 59/130/29
f 59/132/30 66/145/30 60/133/30
f 57/126/31 64/141/31 63/137/31
f 66/145/32 71/153/32 72/155/32
f 64/141/33 69/149/33 63/137/33
f 68/148/34 70/152/34 64/140/34
f 67/147/35 72/156/35 73/157/35
f 63/139/36 71/154/36 65/142/36
f 53/118/37 57/127/37 59/131/37
f 76/161/38 77/164/38 75/159/38
f 79/167/39 82/172/39 81/170/39
f 82/173/40 83/176/40 81/171/40
f 76/162/1 84/178/1 80/169/1
f 84/179/41 85/181/41 83/175/41
f 86/184/42 75/160/42 85/180/42
f 88/187/38 89/190/38 87/185/38
f 91/193/39 94/198/39 93/196/39
f 94/199/40 95/202/40 93/197/40
f 88/188/1 96/204/1 92/195/1
f 96/205/41 97/207/41 95/201/41
f 98/210/42 87/186/42 97/206/42
f 4/4/1 3/3/1 7/12/1
f 8/15/2 12/26/2 9/17/2
f 1/1/1 5/6/1 6/9/1
f 4/4/1 8/16/1 5/6/1
f 3/3/1 2/2/1 6/9/1
f 12/28/1 11/23/1 15/31/1
f 6/10/3 10/20/3 11/24/3
f 7/13/4 11/25/4 12/27/4
f 5/7/5 9/18/5 10/21/5
f 15/31/6 19/40/6 20/43/6
f 9/19/1 13/29/1 14/30/1
f 9/19/1 12/28/1 16/32/1
f 10/22/1 14/30/1 15/31/1
f 20/42/7 24/59/7 21/46/7
f 13/29/8 17/34/8 18/37/8
f 16/32/9 20/43/9 17/34/9
f 15/31/10 14/30/10 18/37/10
f 23/54/4 27/67/4 28/71/4
f 18/38/11 22/50/11 23/55/11
f 20/44/12 19/41/12 23/56/12
f 17/35/13 21/47/13 22/51/13
f 27/68/1 26/64/1 25/61/1
f 21/48/5 25/62/5 26/65/5
f 24/60/2 28/72/2 25/63/2
f 22/52/3 26/66/3 27/69/3
f 31/75/3 32/76/3 30/74/3
f 34/80/4 36/85/4 35/83/4
f 36/86/1 34/81/1 37/88/1
f 40/94/14 42/96/14 41/95/14
f 44/98/15 46/102/15 45/100/15
f 46/101/16 48/105/16 47/104/16
f 48/105/43 46/101/43 54/120/43
f 48/106/4 50/111/4 49/109/4
f 50/112/18 40/93/18 39/92/18
f 48/107/19 55/121/19 56/123/19
f 40/94/44 52/116/44 51/113/44
f 46/102/45 44/98/45 53/117/45
f 50/112/46 56/124/46 52/115/46
f 58/128/47 62/136/47 68/148/47
f 54/119/48 53/117/48 59/132/48
f 52/116/49 58/129/49 57/126/49
f 56/124/50 62/136/50 58/128/50
f 55/122/51 54/120/51 60/134/51
f 60/134/52 66/146/52 67/147/52
f 57/125/29 63/138/29 65/143/29
f 59/132/53 65/144/53 66/145/53
f 57/126/54 58/129/54 64/141/54
f 66/145/55 65/144/55 71/153/55
f 64/141/56 70/151/56 69/149/56
f 68/148/57 74/158/57 70/152/57
f 67/147/58 66/146/58 72/156/58
f 63/139/36 69/150/36 71/154/36
f 53/118/37 51/114/37 57/127/37
f 76/161/38 78/165/38 77/164/38
f 79/167/39 80/168/39 82/172/39
f 82/173/40 84/177/40 83/176/40
f 80/169/1 78/166/1 76/162/1
f 76/162/1 86/182/1 84/178/1
f 84/178/1 82/174/1 80/169/1
f 84/179/41 86/183/41 85/181/41
f 86/184/42 76/163/42 75/160/42
f 88/187/38 90/191/38 89/190/38
f 91/193/39 92/194/39 94/198/39
f 94/199/40 96/203/40 95/202/40
f 92/195/1 90/192/1 88/188/1
f 88/188/1 98/208/1 96/204/1
f 96/204/1 94/200/1 92/195/1
f 96/205/41 98/209/41 97/207/41
f 98/210/42 88/189/42 87/186/42
